poster: 
http://imgh.us/the-king-and-the-commissioner.jpg

Format : AVI
Format/Info : Audio Video Interleave
File size : 699 MiB
Duration : 3h 10mn
Overall bit rate mode : Variable
Overall bit rate : 513 Kbps

Video
ID : 0
Format : MPEG-4 Visual
Format profile : Advanced Simple@L5
Format settings, BVOP : 2
Format settings, QPel : Yes
Format settings, GMC : No warppoints
Format settings, Matrix : Default (H.263)
Codec ID : XVID
Codec ID/Hint : XviD
Duration : 3h 10mn
Bit rate : 353 Kbps
Width : 720 pixels
Height : 320 pixels
Display aspect ratio : 2.25:1
Frame rate : 23.976 fps
Color space : YUV
Chroma subsampling : 4:2:0
Bit depth : 8 bits
Scan type : Progressive
Compression mode : Lossy
Bits/(Pixel*Frame) : 0.064
Stream size : 481 MiB (69%)
Writing library : XviD 1.2.1 (UTC 2008-12-04)

Audio
ID : 1
Format : MPEG Audio
Format version : Version 1
Format profile : Layer 3
Mode : Joint stereo
Mode extension : MS Stereo
Codec ID : 55
Codec ID/Hint : MP3
Duration : 3h 10mn
Bit rate mode : Variable
Bit rate : 147 Kbps
Minimum bit rate : 32.0 Kbps
Channel(s) : 2 channels
Sampling rate : 48.0 KHz
Compression mode : Lossy
Stream size : 200 MiB (29%)
Alignment : Aligned on interleaves
Interleave, duration : 24 ms (0.58 video frame)
Interleave, preload duration : 57 ms
Title : VTS_01_1 T80 3_2ch 320Kbps DELAY 0ms
Writing library : LAME3.99r
Encoding settings : -m j -V 4 -q 0 -lowpass 17.5 --vbr-new -b 32

SCREENS: 
http://s15.postimage.org/k8wiq5u4p/tejas_2012_06_24_21h01m20s187.jpg 
http://s15.postimage.org/h3bwzybih/tejas_2012_06_24_21h01m49s220.jpg 
http://s15.postimage.org/89l0iuojt/tejas_2012_06_24_21h01m53s11.jpg 
http://s15.postimage.org/yj631nah5/tejas_2012_06_24_21h02m01s84.jpg 
http://s15.postimage.org/rv9hf1qyx/tejas_2012_06_24_21h02m17s244.jpg 
http://s15.postimage.org/liuc57nwp/tejas_2012_06_24_21h02m26s79.jpg 
http://s15.postimage.org/xyr1yyh8p/tejas_2012_06_24_21h02m32s138.jpg
